<svg width="18" height="16" viewBox="0 0 18 16" fill="none" xmlns="http://www.w3.org/2000/svg">
<path d="M10.6875 7.4375H14.625" stroke="#111111" stroke-miterlimit="10" stroke-linecap="square"/>
<path d="M10.6875 10.25H14.625" stroke="#111111" stroke-miterlimit="10" stroke-linecap="square"/>
<path d="M5.625 8C6.24632 8 6.75 7.49632 6.75 6.875C6.75 6.25368 6.24632 5.75 5.625 5.75C5.00368 5.75 4.5 6.25368 4.5 6.875C4.5 7.49632 5.00368 8 5.625 8Z" stroke="#111111" stroke-miterlimit="10" stroke-linecap="square"/>
<path d="M8.4375 11.9375H2.8125C2.8125 10.6949 3.81994 9.6875 5.0625 9.6875H6.1875C7.43006 9.6875 8.4375 10.6949 8.4375 11.9375Z" stroke="#111111" stroke-miterlimit="10" stroke-linecap="square"/>
<path d="M14.0625 1.25C14.0625 2.18206 13.3071 2.9375 12.375 2.9375C11.4429 2.9375 10.6875 2.18206 10.6875 1.25H7.3125C7.3125 2.18206 6.55706 2.9375 5.625 2.9375C4.69294 2.9375 3.9375 2.18206 3.9375 1.25H0.5625V14.75H17.4375V1.25H14.0625Z" stroke="#111111" stroke-miterlimit="10" stroke-linecap="square"/>
</svg>
