<svg width="62" height="58" viewBox="0 0 62 58" fill="none" xmlns="http://www.w3.org/2000/svg">
<path fill-rule="evenodd" clip-rule="evenodd" d="M47 0H15V58H47V0ZM41.5515 12.3313C39.6589 8.57593 35.7681 6 31.2758 6C26.7834 6 22.8927 8.57593 21 12.3313C21.9993 7.57288 26.2203 4 31.2758 4C36.3313 4 40.5523 7.57288 41.5515 12.3313ZM39 17C39 21.4183 35.4183 25 31 25C26.5817 25 23 21.4183 23 17C23 12.5817 26.5817 9 31 9C35.4183 9 39 12.5817 39 17ZM31.2758 32C35.7681 32 39.6589 34.5759 41.5515 38.3312C40.5523 33.5728 36.3313 30 31.2758 30C26.2203 30 21.9993 33.5728 21 38.3312C22.8927 34.5759 26.7834 32 31.2758 32ZM39 43C39 47.4183 35.4183 51 31 51C26.5817 51 23 47.4183 23 43C23 38.5817 26.5817 35 31 35C35.4183 35 39 38.5817 39 43Z" fill="black"/>
<path d="M49 6H62L49 19V6Z" fill="black"/>
<path d="M62 30H49V43L62 30Z" fill="black"/>
<path d="M13 6H0L13 19V6Z" fill="black"/>
<path d="M0 30H13V43L0 30Z" fill="black"/>
</svg>
