<svg width="52" height="52" viewBox="0 0 52 52" xmlns="http://www.w3.org/2000/svg">
  <path d="M36.3714 9.95536L34.9822 2.07685L30.0582 2.94509L31.4474 10.8236L15.6904 13.602L14.3013 5.72352L9.37722 6.59176L10.7664 14.4702L1.90315 16.033L2.77139 20.9571L11.6346 19.3943L14.5867 36.136L5.7234 37.6988L6.59164 42.6229L15.4549 41.06L17.0177 49.9233L21.9418 49.0551L20.3789 40.1918L36.1359 37.4134L37.6987 46.2766L42.6228 45.4084L41.0599 36.5452L49.9232 34.9823L49.0549 30.0583L40.1917 31.6211L37.2397 14.8794L46.1029 13.3166L45.2347 8.39252L36.3714 9.95536ZM32.3156 15.7476L16.5587 18.526L19.5107 35.2677L35.2676 32.4894L32.3156 15.7476Z" fill="black"/>
</svg>
