<svg width="585" height="119" viewBox="0 0 585 119" fill="none" xmlns="http://www.w3.org/2000/svg">
<path d="M36.7412 89.1777C44.876 89.1777 51.5719 87.0195 56.8291 82.7031C62.1416 78.3867 65.0469 72.4102 65.5449 64.7734H70.0273C69.5846 73.4616 66.2367 80.4619 59.9834 85.7744C53.7301 91.0316 45.9827 93.6602 36.7412 93.6602C25.5075 93.6602 16.5703 89.5928 9.92969 81.458C3.3444 73.3232 0.0517578 62.2832 0.0517578 48.3379V45.3496C0.0517578 31.7363 3.3444 20.8623 9.92969 12.7275C16.5703 4.59277 25.4521 0.525391 36.5752 0.525391C46.0934 0.525391 53.9515 3.37533 60.1494 9.0752C66.3473 14.7751 69.64 22.3564 70.0273 31.8193H65.5449C65.1576 23.7399 62.3076 17.2653 56.9951 12.3955C51.738 7.47038 44.9313 5.00781 36.5752 5.00781C26.5589 5.00781 18.7008 8.63249 13.001 15.8818C7.35645 23.0758 4.53418 33.0921 4.53418 45.9307V48.8359C4.53418 61.3978 7.38411 71.2757 13.084 78.4697C18.8392 85.6084 26.7249 89.1777 36.7412 89.1777ZM124.896 93.6602C117.646 93.6602 110.978 91.7233 104.891 87.8496C98.8587 83.9206 94.1273 78.5527 90.6963 71.7461C87.2653 64.9395 85.5498 57.3857 85.5498 49.085V45.3496C85.5498 37.0488 87.21 29.4398 90.5303 22.5225C93.8506 15.6051 98.416 10.2096 104.227 6.33594C110.037 2.46224 116.373 0.525391 123.235 0.525391C133.252 0.525391 141.442 4.09473 147.806 11.2334C154.17 18.3721 157.352 27.752 157.352 39.373V44.1045H90.0322V49.002C90.0322 56.3066 91.554 63.0856 94.5977 69.3389C97.6966 75.5368 101.93 80.4066 107.298 83.9482C112.721 87.4899 118.587 89.2607 124.896 89.2607C130.927 89.2607 136.046 88.2646 140.252 86.2725C144.513 84.2249 148.276 81.0983 151.541 76.8926L154.695 79.1338C147.999 88.818 138.066 93.6602 124.896 93.6602ZM123.235 5.00781C114.492 5.00781 107.076 8.27279 100.989 14.8027C94.902 21.2773 91.3327 29.5505 90.2812 39.6221H152.869V38.543C152.869 32.4557 151.569 26.8112 148.968 21.6094C146.422 16.3522 142.881 12.2848 138.343 9.40723C133.86 6.47428 128.825 5.00781 123.235 5.00781ZM232.225 6.75098H182.752V92H178.27V2.18555H232.225V6.75098ZM241.854 45.3496C241.854 36.7721 243.486 29.0801 246.751 22.2734C250.071 15.4115 254.72 10.0713 260.696 6.25293C266.728 2.43457 273.535 0.525391 281.116 0.525391C288.642 0.525391 295.394 2.37923 301.37 6.08691C307.347 9.7946 311.995 15.0518 315.315 21.8584C318.691 28.665 320.407 36.3294 320.462 44.8516V48.8359C320.462 57.4688 318.829 65.1885 315.564 71.9951C312.299 78.8018 307.651 84.1143 301.619 87.9326C295.643 91.751 288.864 93.6602 281.282 93.6602C273.701 93.6602 266.894 91.7786 260.862 88.0156C254.886 84.2526 250.237 78.9954 246.917 72.2441C243.597 65.4375 241.909 57.8008 241.854 49.334V45.3496ZM246.336 48.8359C246.336 56.3066 247.802 63.1686 250.735 69.4219C253.724 75.6198 257.846 80.4619 263.104 83.9482C268.416 87.4346 274.476 89.1777 281.282 89.1777C291.52 89.1777 299.848 85.3317 306.268 77.6396C312.742 69.9476 315.979 60.042 315.979 47.9229V45.3496C315.979 37.9896 314.485 31.1829 311.497 24.9297C308.509 18.6764 304.358 13.8066 299.046 10.3203C293.789 6.77865 287.812 5.00781 281.116 5.00781C270.879 5.00781 262.522 8.90918 256.048 16.7119C249.573 24.5146 246.336 34.3372 246.336 46.1797V48.8359ZM332.913 87.5176L336.067 83.2842C344.202 72.1611 348.934 56.0299 350.262 34.8906L352.005 2.18555H400.232V87.5176H407.371V118.396H402.889V92H330.589V118.396H326.937V87.5176H332.913ZM338.392 87.5176H395.75V6.66797H356.238L354.661 36.3848C353.112 58.9076 347.688 75.9518 338.392 87.5176ZM493.201 92H488.636V48.0889H433.104V92H428.621V2.18555H433.104V43.6064H488.636V2.18555H493.201V92ZM584.178 2.18555V92H579.695V54.6465H546.824L524.329 92H519.017L541.678 54.2314C535.203 53.18 530.084 50.3577 526.321 45.7646C522.558 41.1715 520.677 35.3887 520.677 28.416C520.677 20.6133 523.305 14.3324 528.562 9.57324C533.875 4.81413 541.069 2.35156 550.145 2.18555H584.178ZM525.159 28.582C525.159 35.0566 527.096 40.2308 530.97 44.1045C534.899 47.9782 540.184 49.9704 546.824 50.0811H579.695V6.75098H550.975C542.895 6.75098 536.559 8.68783 531.966 12.5615C527.428 16.4352 525.159 21.7754 525.159 28.582Z" fill="black"/>
</svg>
