<svg width="118" height="118" viewBox="0 0 118 118" fill="none" xmlns="http://www.w3.org/2000/svg">
<path d="M85.7423 43.4067C85.7423 28.1232 73.3536 12 58.0701 12C42.7865 12 30.3978 28.1232 30.3978 43.4067C30.3978 58.6902 42.7865 71.079 58.0701 71.079C73.3536 71.078 85.7423 58.6893 85.7423 43.4067Z" fill="#583A2F"/>
<path d="M42.5745 102.32H77.7074C77.7074 102.32 81.2928 64.0428 80.8354 48.8827C80.3781 33.7227 65.8958 24.4236 52.9391 24.4236C39.9824 24.4236 26.5684 82.8916 42.5745 102.32Z" fill="#583A2F"/>
<path d="M90.2067 92.3418C87.3832 86.9967 74.422 82.9705 65.9698 80.8568V62.7681H51.0302V80.8568C42.578 82.9705 29.6168 86.9967 26.7933 92.3418C23.6387 103.553 21 117.799 21 117.799H58.5H96C96 117.799 94.2174 102.524 90.2067 92.3418Z" fill="#F1C9A5"/>
<path d="M90.2067 92.3418C87.3832 86.9967 74.422 82.9705 65.9698 80.8568V62.7681H58.5V79.1931V87.7705V117.799H96C96 117.799 94.2174 102.524 90.2067 92.3418Z" fill="#E4B692"/>
<path opacity="0.1" d="M51.0302 74.3537C52.3737 78.2107 57.7957 80.4214 61.778 80.4214C63.2186 80.4214 64.6198 80.18 65.9698 79.7382V62.7681H51.0302V74.3537Z" fill="#DDAC8C"/>
<path d="M77.7073 46.9913C77.7073 31.3748 69.1079 22.4946 58.5 22.4946C47.8921 22.4946 39.2927 31.3748 39.2927 46.9913C39.2927 62.6077 47.8921 75.269 58.5 75.269C69.107 75.269 77.7073 62.6087 77.7073 46.9913Z" fill="#F1C9A5"/>
<path d="M74.7832 57.8225C71.3012 57.4877 68.9506 54.0359 69.5396 50.1185C70.1223 46.1975 73.4195 43.2862 76.9034 43.6201C80.3835 43.9539 82.7305 47.4039 82.1433 51.3249C81.5598 55.246 78.2653 58.1545 74.7832 57.8225Z" fill="#E4B692"/>
<path d="M34.2027 51.3248C33.6146 47.4038 35.9625 43.9538 39.4409 43.6199C42.9265 43.287 46.2238 46.1974 46.8082 50.1184C47.3963 54.0358 45.043 57.4876 41.5637 57.8224C38.0808 58.1544 34.7872 55.2459 34.2027 51.3248Z" fill="#F1C9A5"/>
<path d="M77.7073 46.9913C77.7073 31.3748 69.1079 22.4946 58.5 22.4946V75.269C69.107 75.269 77.7073 62.6087 77.7073 46.9913Z" fill="#E4B692"/>
<path d="M65.9698 80.8575V76.7773C63.5552 76.985 61.0582 77.0947 58.5 77.0947C55.9418 77.0947 53.4448 76.985 51.0302 76.7773V80.8575C42.578 82.9713 29.6168 86.9975 26.7933 92.3426C23.6387 103.554 21 117.8 21 117.8H58.5H96C96 117.8 94.2183 102.525 90.2067 92.3426C87.3832 86.9975 74.422 82.9703 65.9698 80.8575Z" fill="#C51C39"/>
<path d="M49.3418 81.1267C49.3418 81.1351 49.3418 81.1425 49.3418 81.1499" stroke="white" stroke-width="1.4308" stroke-linecap="round" stroke-linejoin="round"/>
<path d="M49.5129 82.8937C50.336 87.1056 54.0467 90.283 58.501 90.283C63.2598 90.283 67.1708 86.6537 67.6162 82.012" stroke="white" stroke-width="1.4308" stroke-linecap="round" stroke-linejoin="round" stroke-dasharray="0.05 1.92"/>
<path d="M67.6583 81.1496C67.6583 81.1413 67.6583 81.1339 67.6583 81.1265" stroke="white" stroke-width="1.4308" stroke-linecap="round" stroke-linejoin="round"/>
<path d="M30.3979 43.4065C30.3979 43.4065 27.0247 99.3611 24.5095 117.799H43.7168L39.8131 65.8763" fill="#583A2F"/>
<path d="M85.7414 43.4065C85.7414 43.4065 89.1146 99.3611 91.6299 117.799H72.4225L74.9661 68.8589" fill="#583A2F"/>
<path d="M59.6048 19.3618C48.1253 19.3618 37.7158 32.1457 37.7158 44.26C37.7158 44.3066 37.7186 44.3515 37.7186 44.3972H48.5597L49.5859 36.3127V44.3972H60.5616V36.3127L62.4859 44.3972H69.45V37.6847L71.1201 44.3972H79.2823C79.2823 44.3505 79.285 44.3057 79.285 44.26C79.285 32.1457 71.0835 19.3618 59.6048 19.3618Z" fill="#583A2F"/>
</svg>
