<svg width="75" height="113" viewBox="0 0 75 113" fill="none" xmlns="http://www.w3.org/2000/svg">
<path d="M37.4999 65.419C51.7544 65.419 63.3099 53.2044 63.3099 38.1369C63.3099 23.0694 51.7544 10.8547 37.4999 10.8547C23.2454 10.8547 11.6899 23.0694 11.6899 38.1369C11.6899 53.2044 23.2454 65.419 37.4999 65.419Z" fill="#EC9A1C"/>
<path d="M69.2062 87.73C64.9386 79.6506 37.5 74.5808 37.5 74.5808C37.5 74.5808 10.0596 79.6506 5.79208 87.73C2.63806 98.9411 0.245026 113.187 0.245026 113.187H37.5H74.4093C74.4093 113.187 73.2183 97.9118 69.2062 87.73Z" fill="#F1C9A5"/>
<path d="M37.5 74.5808C37.5 74.5808 64.9386 79.6506 69.2062 87.73C73.2183 97.9127 74.4093 113.187 74.4093 113.187H37.5V74.5808Z" fill="#E4B692"/>
<path d="M44.9698 58.155H30.0295V83.1576H44.9698V58.155Z" fill="#F1C9A5"/>
<path d="M44.9706 58.155H37.5V83.1576H44.9706V58.155Z" fill="#E4B692"/>
<path opacity="0.1" d="M30.0302 69.741C31.3742 73.5975 36.7966 75.8091 40.7787 75.8091C42.2198 75.8091 43.6205 75.5684 44.9705 75.1255V58.155H30.0302V69.741Z" fill="#DDAC8C"/>
<path d="M56.708 42.3796C56.708 26.7625 48.1075 17.8826 37.5001 17.8826C26.8927 17.8826 18.2922 26.7625 18.2922 42.3796C18.2922 57.9966 26.8927 70.6574 37.5001 70.6574C48.1075 70.6574 56.708 57.9966 56.708 42.3796Z" fill="#F1C9A5"/>
<path d="M54.4689 53.2074C50.9872 52.8196 48.6363 48.8323 49.2271 44.3051C49.8083 39.7744 53.1068 36.4114 56.5902 36.7967C60.0701 37.1819 62.4176 41.1674 61.8303 45.6981C61.2455 50.2296 57.9522 53.5892 54.4689 53.2074Z" fill="#E4B692"/>
<path d="M13.0778 45.6981C12.4896 41.1674 14.8362 37.1827 18.3144 36.7967C21.8012 36.4114 25.098 39.7744 25.6818 44.3051C26.27 48.8323 23.9165 52.8187 20.4366 53.2074C16.955 53.5883 13.6599 50.2288 13.0778 45.6981Z" fill="#F1C9A5"/>
<path d="M56.7079 42.3796C56.7079 26.7625 48.1074 17.8826 37.5 17.8826V70.6574C48.1074 70.6574 56.7079 57.9966 56.7079 42.3796Z" fill="#E4B692"/>
<path d="M37.5001 25.9803C44.6744 25.9803 50.4903 20.1644 50.4903 12.9901C50.4903 5.81588 44.6744 0 37.5001 0C30.3259 0 24.51 5.81588 24.51 12.9901C24.51 20.1644 30.3259 25.9803 37.5001 25.9803Z" fill="#EC9A1C"/>
<path d="M26.087 77.1531C26.087 77.1656 26.087 77.1771 26.087 77.1885" stroke="white" stroke-width="1.9426" stroke-linecap="round" stroke-linejoin="round"/>
<path d="M26.3036 79.4099C27.3561 84.7858 32.0923 88.8419 37.7786 88.8419C43.8459 88.8419 48.8366 84.2175 49.4136 78.2998" stroke="white" stroke-width="1.9426" stroke-linecap="round" stroke-linejoin="round" stroke-dasharray="0.07 2.6"/>
<path d="M49.4695 77.1885C49.4695 77.176 49.4695 77.1656 49.4695 77.1531" stroke="white" stroke-width="1.9426" stroke-linecap="round" stroke-linejoin="round"/>
<path d="M37.5 99.2287C24.4591 99.2287 12.7218 96.6568 4.50918 92.5509C1.95278 102.637 0 113.186 0 113.186H37.5H75C75 113.186 73.6939 102.004 70.803 92.397C62.5791 96.5932 50.7051 99.2287 37.5 99.2287Z" fill="#92278F"/>
<path d="M15.568 80.8776V98.0175H18.2921V79.7993C17.3651 80.1441 16.4528 80.5036 15.568 80.8776Z" fill="#92278F"/>
<path d="M61.9205 82.0087C61.0503 81.583 60.1388 81.172 59.1947 80.7791V98.0178H61.9205V82.0087Z" fill="#92278F"/>
<path d="M18.3145 36.7952C18.3145 36.7952 39.4959 36.803 44.9707 28.5714C49.5306 35.4315 56.708 36.8159 56.708 36.8159L56.2497 22.6262L43.3567 15.0808L19.3791 19.4249L18.3145 36.7952Z" fill="#EC9A1C"/>
<path d="M44.9698 72.4746H30.0295V76.2434H44.9698V72.4746Z" fill="#92278F"/>
<path d="M57.1644 50.9805H55.3354V52.8103H57.1644V50.9805Z" fill="white"/>
<path d="M20.294 50.9805H18.465V52.8103H20.294V50.9805Z" fill="white"/>
</svg>
