<svg width="118" height="118" viewBox="0 0 118 118" fill="none" xmlns="http://www.w3.org/2000/svg">
<path d="M46.874 76.4436H69.4761C69.4761 76.4436 81.0796 64.9951 80.6315 50.1392C80.1834 35.2832 65.9925 26.1721 53.2964 26.1721C40.6004 26.173 31.1899 57.4067 46.874 76.4436Z" fill="#A25A34"/>
<path d="M89.8144 92.7253C85.6325 84.8089 58.7456 79.8411 58.7456 79.8411C58.7456 79.8411 31.8586 84.8089 27.6767 92.7253C24.5856 103.711 22 117.67 22 117.67H58.7456H95.4911C95.4911 117.67 93.7443 102.703 89.8144 92.7253Z" fill="#F1C9A5"/>
<path d="M58.7455 79.8411C58.7455 79.8411 85.6325 84.8089 89.8144 92.7253C93.7452 102.703 95.4911 117.67 95.4911 117.67H58.7455V79.8411Z" fill="#E4B692"/>
<path d="M66.0651 63.7466H51.426V88.246H66.0651V63.7466Z" fill="#F1C9A5"/>
<path d="M66.0651 63.7466H58.7455V88.246H66.0651V63.7466Z" fill="#E4B692"/>
<path opacity="0.1" d="M51.426 75.0992C52.7426 78.8786 58.0555 81.0448 61.9577 81.0448C63.3692 81.0448 64.7423 80.8082 66.0651 80.3753V63.7466H51.426V75.0992Z" fill="#DDAC8C"/>
<path d="M77.5665 48.2877C77.5665 32.9855 69.1401 24.2839 58.7456 24.2839C48.3511 24.2839 39.9247 32.9855 39.9247 48.2877C39.9247 63.59 48.3511 75.9966 58.7456 75.9966C69.1392 75.9966 77.5665 63.5909 77.5665 48.2877Z" fill="#F1C9A5"/>
<path d="M74.7012 58.8971C71.2892 58.5171 68.9859 54.6104 69.564 50.1749C70.1349 45.7359 73.3658 42.4404 76.7796 42.8178C80.1897 43.196 82.4895 47.1009 81.9141 51.5399C81.3414 55.9789 78.1132 59.2717 74.7012 58.8971Z" fill="#E4B692"/>
<path d="M35.7106 51.5399C35.1344 47.1009 37.435 43.196 40.8434 42.8178C44.258 42.4404 47.4898 45.7359 48.0625 50.1749C48.6388 54.6104 46.3328 58.518 42.9235 58.8971C39.5107 59.2717 36.2824 55.9789 35.7106 51.5399Z" fill="#F1C9A5"/>
<path d="M77.5664 48.2877C77.5664 32.9855 69.1401 24.2839 58.7455 24.2839V75.9966C69.1392 75.9966 77.5664 63.5909 77.5664 48.2877Z" fill="#E4B692"/>
<path d="M89.8144 92.7241C89.5652 92.2518 89.23 91.7893 88.8276 91.3376C84.2649 97.3442 72.5207 101.621 58.7464 101.621H58.7456C58.7447 101.621 58.7447 101.621 58.7447 101.621C44.9705 101.621 33.2253 97.3451 28.6626 91.3385C28.262 91.7893 27.9268 92.2518 27.6767 92.7241C24.5856 103.71 22 117.669 22 117.669H58.7456H95.4911C95.4911 117.669 93.7443 102.702 89.8144 92.7241Z" fill="#01561E"/>
<path d="M50.8802 32.0247C54.0044 37.6629 61.8348 40.875 67.4838 45.1106C77.3746 52.5261 72.9042 68.9217 69.4752 76.4447C81.9042 69.2202 91.0171 57.0995 86.4445 37.4586C81.8719 17.8167 66.264 9.45937 50.1184 16.424C36.8317 12.9403 23.1947 33.1172 24.7666 51.3663C26.3377 69.6136 46.874 76.4438 46.874 76.4438C46.874 76.4438 34.6252 49.2584 50.8802 32.0247Z" fill="#D1874A"/>
</svg>
