<svg width="85" height="105" viewBox="0 0 85 105" fill="none" xmlns="http://www.w3.org/2000/svg">
<path d="M70.9253 78.6508C66.5516 70.3713 38.4312 65.1755 38.4312 65.1755C38.4312 65.1755 10.3108 70.3713 5.93715 78.6508C2.70425 90.1408 0 104.74 0 104.74H38.4312H76.8624C76.8624 104.74 75.0365 89.0863 70.9253 78.6508Z" fill="#F1C9A5"/>
<path d="M38.4313 65.1755C38.4313 65.1755 66.5517 70.3713 70.9253 78.6508C75.0365 89.0863 76.8625 104.74 76.8625 104.74H38.4313V65.1755Z" fill="#E4B692"/>
<path d="M46.0866 48.343H30.7759V73.9663H46.0866V48.343Z" fill="#F1C9A5"/>
<path d="M46.0866 48.343H38.4313V73.9663H46.0866V48.343Z" fill="#E4B692"/>
<path opacity="0.1" d="M30.7759 60.2164C32.1529 64.1692 37.7095 66.4347 41.7907 66.4347C43.267 66.4347 44.703 66.1873 46.0866 65.7346V48.343H30.7759V60.2164Z" fill="#DDAC8C"/>
<path d="M58.1155 32.175C58.1155 16.1708 49.3026 7.07007 38.4312 7.07007C27.5599 7.07007 18.7469 16.1708 18.7469 32.175C18.7469 48.1793 27.5599 61.155 38.4312 61.155C49.3026 61.155 58.1155 48.1802 58.1155 32.175Z" fill="#F1C9A5"/>
<path d="M55.1198 43.2713C51.5513 42.8739 49.1423 38.788 49.7469 34.149C50.344 29.5064 53.7232 26.0597 57.2935 26.4544C60.8601 26.8499 63.2653 30.9339 62.6636 35.5766C62.0637 40.2193 58.6883 43.6631 55.1198 43.2713Z" fill="#E4B692"/>
<path d="M14.3396 35.5766C13.7369 30.9339 16.143 26.849 19.7068 26.4544C23.279 26.0597 26.6582 29.5064 27.2571 34.149C27.8599 38.788 25.4481 42.8748 21.8824 43.2713C18.3139 43.6631 14.9385 40.2193 14.3396 35.5766Z" fill="#F1C9A5"/>
<path d="M58.1156 32.175C58.1156 16.1708 49.3026 7.07007 38.4313 7.07007V61.155C49.3026 61.155 58.1156 48.1802 58.1156 32.175Z" fill="#E4B692"/>
<path d="M29.1197 54.1628C29.1197 54.1628 20.6301 47.2442 22.517 38.1276C24.403 29.01 29.1197 27.439 29.1197 23.3494C36.9793 32.7828 43.8988 39.3827 56.4743 35.9257C60.2471 38.1276 55.5313 49.4488 49.8707 55.4216C65.9068 46.6171 84.4569 14.2327 45.7829 1.65446C7.10797 -10.9229 -3.89462 52.2768 29.1197 54.1628Z" fill="#0F303F"/>
<path d="M38.4302 16.9916C48.5911 16.9916 57.0319 24.3348 58.7501 34.0026C58.96 32.8215 59.0753 31.6086 59.0753 30.3685C59.0753 18.9675 49.8331 9.72437 38.4302 9.72437C27.0293 9.72437 17.787 18.9675 17.787 30.3685C17.787 31.6086 17.9023 32.8215 18.1132 34.0026C19.8295 24.3348 28.2694 16.9916 38.4302 16.9916Z" fill="#F3641E"/>
<path d="M23.4167 68.937C26.1707 70.4124 32.6093 73.4878 38.4302 73.4878C46.0865 73.4878 56.0945 69.7385 56.0945 69.7385L54.7176 69.342C51.5859 68.3212 48.4739 67.4729 45.8156 66.813C38.2062 71.3732 30.7843 66.8842 30.7768 66.8795C28.5431 67.4391 26.0066 68.129 23.4167 68.937Z" fill="#FA582A"/>
<path d="M70.9253 78.6507C69.4461 75.8508 65.2487 73.4053 60.3454 71.3928C57.6384 80.95 48.8555 87.9557 38.4312 87.9557C28.007 87.9557 19.224 80.95 16.517 71.3928C11.6137 73.4062 7.41629 75.8508 5.93715 78.6507C2.70425 90.1407 0 104.74 0 104.74H38.4312H76.8624C76.8624 104.74 75.0365 89.0862 70.9253 78.6507Z" fill="#1594A3"/>
<path d="M83.0828 63.8226C78.8647 62.3191 72.1468 65.5998 67.7337 65.1761C62.9111 64.7131 60.3006 67.9901 57.3348 67.3958C51.6329 66.2532 51.108 68.3191 51.108 68.3191C51.108 68.3191 49.7292 65.5211 55.432 66.4341C61.1348 67.348 65.4935 64.6222 66.7964 62.8646C68.7657 60.2082 75.3497 60.8344 75.3497 60.8344L71.9134 56.8497C69.4922 56.381 65.8984 56.6932 63.9459 60.0526C61.9934 63.4121 60.1965 63.802 54.7177 63.1768C49.2389 62.5516 45.8157 66.8127 45.8157 66.8127L56.1734 69.8273C56.1734 69.8273 58.3106 70.4103 60.4983 70.354C62.6861 70.2969 64.9732 68.0444 69.5494 68.3912C74.4507 68.7624 78.9031 66.3797 84.6706 68.5356L83.0828 63.8226Z" fill="#FA582A"/>
</svg>
