<svg width="118" height="118" viewBox="0 0 118 118" fill="none" xmlns="http://www.w3.org/2000/svg">
<path d="M33.9805 52.525C33.9805 63.594 27.9069 63.88 28.3391 71.2097C28.82 79.3268 35.1645 79.3455 35.1645 84.926C35.1645 90.5046 29.3299 96.76 34.4989 102.768C57.2257 102.768 59.4437 102.768 59.4437 102.768V35.0786L33.9805 52.525Z" fill="#2E576D"/>
<path d="M84.8863 52.1581C84.8863 63.2272 90.9607 63.5131 90.5277 70.8428C90.0477 78.9599 83.7032 78.9787 83.7032 84.5591C83.7032 90.1377 89.5368 96.3931 84.3688 102.401C61.641 102.401 59.4231 102.401 59.4231 102.401V34.7126L84.8863 52.1581Z" fill="#2E576D"/>
<path d="M59.4343 68.9228C74.7771 68.9228 87.2148 56.4041 87.2148 40.9614C87.2148 25.5188 74.7771 13 59.4343 13C44.0916 13 31.6538 25.5188 31.6538 40.9614C31.6538 56.4041 44.0916 68.9228 59.4343 68.9228Z" fill="#2E576D"/>
<path d="M91.931 91.7869C87.557 83.5067 59.4343 78.3105 59.4343 78.3105C59.4343 78.3105 31.3116 83.5067 26.9376 91.7869C23.7045 103.278 21 117.878 21 117.878H59.4343H97.8686C97.8686 117.878 96.0416 102.223 91.931 91.7869Z" fill="#F1C9A5"/>
<path d="M59.4343 78.3105C59.4343 78.3105 87.557 83.5067 91.931 91.7869C96.0425 102.223 97.8686 117.878 97.8686 117.878H59.4343V78.3105Z" fill="#E4B692"/>
<path d="M67.0902 61.4771H51.7784V87.1024H67.0902V61.4771Z" fill="#F1C9A5"/>
<path d="M67.0902 61.4771H59.4343V87.1024H67.0902V61.4771Z" fill="#E4B692"/>
<path opacity="0.1" d="M51.7784 73.3514C53.1555 77.3045 58.7125 79.5702 62.794 79.5702C64.2705 79.5702 65.7075 79.3227 67.0902 78.87V61.4771H51.7784V73.3514Z" fill="#DDAC8C"/>
<path d="M79.1202 45.3077C79.1202 29.3021 70.3065 20.2007 59.4343 20.2007C48.5621 20.2007 39.7484 29.3021 39.7484 45.3077C39.7484 61.3132 48.5621 74.2899 59.4343 74.2899C70.3056 74.2899 79.1202 61.3141 79.1202 45.3077Z" fill="#F1C9A5"/>
<path d="M76.1232 56.4047C72.5544 56.0073 70.1453 51.921 70.7499 47.2817C71.347 42.6387 74.7264 39.1918 78.2971 39.5864C81.864 39.982 84.2694 44.0664 83.6676 48.7094C83.0686 53.3525 79.692 56.7966 76.1232 56.4047Z" fill="#E4B692"/>
<path d="M35.3407 48.7094C34.7379 44.0664 37.1443 39.9811 40.7093 39.5864C44.2809 39.1918 47.6612 42.6387 48.2602 47.2817C48.8621 51.921 46.451 56.0082 42.8851 56.4047C39.3154 56.7966 35.9388 53.3525 35.3407 48.7094Z" fill="#F1C9A5"/>
<path d="M79.1202 45.3077C79.1202 29.3021 70.3065 20.2007 59.4343 20.2007V74.2899C70.3056 74.2899 79.1202 61.3141 79.1202 45.3077Z" fill="#E4B692"/>
<path d="M80.7447 43.5012C80.7447 43.4533 80.7475 43.4074 80.7475 43.3605C80.7475 30.9444 72.3416 17.842 60.5761 17.842C48.8105 17.842 38.1426 30.9435 38.1426 43.3596C38.1426 43.4074 38.1454 43.4533 38.1454 43.5002H80.7447V43.5012Z" fill="#2E576D"/>
<path d="M97.8686 117.879C97.8686 117.879 96.0425 102.224 91.931 91.7879C89.5321 87.2461 79.9938 83.6361 71.8645 81.2991L59.4052 91.0783L46.4454 81.4603C38.4445 83.801 29.2812 87.3511 26.9376 91.7888C23.7045 103.28 21 117.88 21 117.88H59.4343H97.8686V117.879Z" fill="#FA582A"/>
</svg>
