<svg width="82" height="105" viewBox="0 0 82 105" fill="none" xmlns="http://www.w3.org/2000/svg">
<path d="M75.666 76.9546C71 68.1216 41 62.5786 41 62.5786C41 62.5786 11 68.1216 6.334 76.9546C2.885 89.2126 0 104.788 0 104.788H41H82C82 104.788 80.051 88.0876 75.666 76.9546Z" fill="#F1C9A5"/>
<path d="M41 62.5786C41 62.5786 71 68.1216 75.666 76.9546C80.052 88.0876 82 104.788 82 104.788H41V62.5786Z" fill="#E4B692"/>
<path d="M49.167 44.6206H32.833V71.9566H49.167V44.6206Z" fill="#F1C9A5"/>
<path d="M49.167 44.6206H41V71.9566H49.167V44.6206Z" fill="#E4B692"/>
<path opacity="0.1" d="M32.833 57.2876C34.302 61.5046 40.23 63.9216 44.584 63.9216C46.159 63.9216 47.691 63.6576 49.167 63.1746V44.6206H32.833V57.2876Z" fill="#DDAC8C"/>
<path d="M62 27.3716C62 10.2976 52.598 0.588623 41 0.588623C29.402 0.588623 20 10.2976 20 27.3716C20 50.3376 29.402 58.2886 41 58.2886C52.597 58.2886 62 49.3806 62 27.3716Z" fill="#F1C9A5"/>
<path d="M58.803 39.2116C54.996 38.8126 52.426 34.7117 53.071 30.0557C53.708 25.3957 57.313 21.9357 61.122 22.3317C64.927 22.7277 67.493 26.8277 66.851 31.4876C66.212 36.1486 62.61 39.6056 58.803 39.2116Z" fill="#E4B692"/>
<path d="M15.298 31.4885C14.655 26.8285 17.222 22.7285 21.025 22.3325C24.836 21.9355 28.441 25.3955 29.08 30.0565C29.722 34.7125 27.15 38.8145 23.346 39.2125C19.538 39.6055 15.936 36.1485 15.298 31.4885Z" fill="#F1C9A5"/>
<path d="M62 27.3716C62 10.2976 52.598 0.588623 41 0.588623V58.2886C52.597 58.2886 62 49.3806 62 27.3716Z" fill="#E4B692"/>
<path d="M75.666 76.9546C72.94 71.7966 61.584 67.7636 52.601 65.2986L41 78.5586L29.399 65.2986C20.416 67.7636 9.059 71.7966 6.334 76.9546C2.885 89.2126 0 104.788 0 104.788H41H82C82 104.788 80.051 88.0876 75.666 76.9546Z" fill="#3595BB"/>
<path d="M23.379 35.5445C23.379 35.5445 38.214 25.4205 39.96 19.8365C39.785 24.8975 39.96 29.4355 39.96 29.4355C39.96 29.4355 54.447 15.1245 53.05 3.43051C36.644 -5.29749 23.903 4.8265 20.935 9.5385C17.967 14.2505 17.269 27.3415 23.379 35.5445Z" fill="#262421"/>
<path d="M50.955 8.14142C50.955 8.14142 57.763 16.3464 59.159 32.7524C64.046 25.5954 69.282 4.82542 53.05 3.43042C51.653 6.04742 50.955 8.14142 50.955 8.14142Z" fill="#262421"/>
<path d="M55.998 81.3466L46.921 72.9096L40.985 78.5576L50.85 64.4736C50.85 64.4736 54.067 64.8296 55.211 68.3336C55.569 73.8406 55.998 81.3466 55.998 81.3466Z" fill="white"/>
<path d="M37.792 104.788H41V78.5585L37.792 75.5195V104.788Z" fill="#27AAE1"/>
<path d="M25.972 81.3466L35.049 72.9096L40.985 78.5576L31.12 64.4736C31.12 64.4736 27.903 64.8296 26.759 68.3336C26.401 73.8406 25.972 81.3466 25.972 81.3466Z" fill="white"/>
</svg>
