<svg width="118" height="118" viewBox="0 0 118 118" fill="none" xmlns="http://www.w3.org/2000/svg">
<path d="M89.414 86.2603C83.3391 84.0861 69.4133 82.441 69.4133 59.7776H59.9008H58.273H48.7604C48.7604 82.441 34.8347 84.0861 28.7598 86.2603C28.7598 101.676 54.4146 102.149 58.273 103.586V104.086C58.273 104.086 58.573 104.025 59.0869 103.865C59.6007 104.025 59.9008 104.086 59.9008 104.086V103.586C63.7592 102.15 89.414 101.676 89.414 86.2603Z" fill="#F3D8B6"/>
<path d="M69.4133 59.7778H59.9008H59.1276V103.877C59.6154 104.028 59.9008 104.086 59.9008 104.086V103.586C63.7592 102.15 89.414 101.676 89.414 86.2602C83.3391 84.0863 69.4133 82.4409 69.4133 59.7778Z" fill="#EEC8A2"/>
<path d="M59.0876 67.1827C50.153 67.1827 43.3335 59.6589 40.2777 54.0168C37.2218 48.3747 35.1071 31.4169 41.6901 22.483C48.1363 13.7343 59.0876 14.7252 59.0876 14.7252C59.0876 14.7252 70.0382 13.7343 76.4848 22.483C83.067 31.4169 80.9517 48.3747 77.8955 54.0168C74.839 59.6589 68.0205 67.1827 59.0876 67.1827Z" fill="#F3DBC4"/>
<path d="M76.485 22.4825C70.2581 14.0322 59.8318 14.6681 59.1279 14.7215V67.1809C68.0409 67.1584 74.8439 59.6496 77.8961 54.0163C80.9516 48.3742 83.0673 31.4167 76.485 22.4825Z" fill="#EDCEAE"/>
<path d="M70.3704 17.4347C70.3704 17.4347 62.421 6.75614 57.4483 9.4296C44.7416 16.2608 43.0578 15.4062 40.207 16.3965C33.2944 18.7973 33.1131 15.552 33.984 20.8798C36.8735 38.5572 33.8027 46.6989 39.1783 40.1284C44.5538 33.5578 46.346 35.1091 60.03 33.6157C73.7139 32.1223 64.9948 26.0125 72.1623 30.9536C79.3297 35.8948 80.2718 44.8602 81.4662 44.8602C82.6608 44.8602 85.3193 27.7455 83.5109 22.434C79.6506 11.0955 70.3704 17.4347 70.3704 17.4347Z" fill="#682234"/>
<path d="M83.5112 22.4344C79.6509 11.0955 70.3707 17.435 70.3707 17.435C70.3707 17.435 64.0263 8.91346 59.1279 9.00166V33.7108C59.425 33.6798 59.7211 33.6496 60.0303 33.6157C73.7139 32.1226 64.9952 26.0125 72.1626 30.9537C79.3303 35.8951 80.2721 44.8602 81.4665 44.8602C82.6612 44.8605 85.3197 27.7462 83.5112 22.4344Z" fill="#581A2B"/>
<path d="M98.1334 104.31L98.0927 117.549H20L20.0407 104.31C20.0407 94.4063 25.6958 85.7718 33.255 81.232C35.2216 80.0471 40.9646 79.1394 43.2928 78.5647C45.2301 78.0805 59.1227 92.1569 59.1227 92.1569C59.1227 92.1569 73.9203 78.0805 75.8576 78.5647C78.1858 79.1394 82.9528 80.0467 84.9191 81.232C92.4783 85.7718 98.1334 94.4063 98.1334 104.31Z" fill="#66A299"/>
<path d="M84.8836 81.2319C82.917 80.047 78.1503 79.1397 75.8221 78.5649C73.8848 78.0807 59.1227 92.1571 59.1227 92.1571L59.0921 117.549H98.098V104.31C98.098 94.4062 92.4428 85.7717 84.8836 81.2319Z" fill="#5A9291"/>
<path d="M85.9191 104.239H68.9964V107.927H85.9191V104.239Z" fill="#B7CAE9"/>
<path d="M84.0746 106.626H70.841V115.087H84.0746V106.626Z" fill="#B7CAE9"/>
<path d="M72.7536 41.4033H63.7426C63.3569 41.4033 62.9759 41.4824 62.626 41.6354L59.0872 42.8958L55.5484 41.6354C55.1986 41.4824 54.8175 41.4033 54.4318 41.4033H45.4211C43.6283 41.4033 43.0093 44.4865 43.0093 44.4865C43.0093 48.5649 46.0004 51.8713 50.7404 51.8713C53.6309 51.8713 56.4059 48.7992 58.1112 46.3125H60.0638C61.7691 48.7992 64.5445 51.8713 67.4347 51.8713C72.1746 51.8713 75.1657 48.5649 75.1657 44.4865C75.1651 44.4868 74.5464 41.4033 72.7536 41.4033Z" fill="#687385"/>
<path d="M82.3766 46.3066C83.4711 43.418 82.9893 40.5576 81.3006 39.9177C79.6118 39.2779 77.3556 41.1009 76.2611 43.9895C75.1667 46.8781 75.6484 49.7384 77.3372 50.3783C79.0259 51.0181 81.2822 49.1952 82.3766 46.3066Z" fill="#EDCEAE"/>
<path d="M35.7949 46.3059C36.8893 49.1945 39.1456 51.0175 40.8343 50.3777C42.5231 49.7378 43.0049 46.8774 41.9104 43.9888C40.8159 41.1002 38.5597 39.2772 36.8709 39.9171C35.1822 40.557 34.7004 43.4173 35.7949 46.3059Z" fill="#F3DBC4"/>
</svg>
