<svg width="118" height="118" viewBox="0 0 118 118" fill="none" xmlns="http://www.w3.org/2000/svg">
<g clip-path="url(#clip0)">
<path d="M21.5 77C27.8513 77 33 70.2843 33 62C33 53.7157 27.8513 47 21.5 47C15.1487 47 10 53.7157 10 62C10 70.2843 15.1487 77 21.5 77Z" fill="#FFD098"/>
<path d="M96.5 77C102.851 77 108 70.2843 108 62C108 53.7157 102.851 47 96.5 47C90.1487 47 85 53.7157 85 62C85 70.2843 90.1487 77 96.5 77Z" fill="#FFD098"/>
<path d="M58.5 77C69.2696 77 78 67.1503 78 55C78 42.8497 69.2696 33 58.5 33C47.7304 33 39 42.8497 39 55C39 67.1503 47.7304 77 58.5 77Z" fill="#FFD098"/>
<path d="M41.9375 57.8314V50.0464C41.9375 49.3085 41.628 47.666 42.0217 47.0371C42.2538 46.6662 43.0225 46.5808 43.4112 46.4637C44.6755 46.0825 45.9131 45.6157 47.1775 45.2344C51.9551 43.794 56.69 42.1471 61.4237 40.5678C62.7851 40.1136 64.1543 39.6797 65.5175 39.2294C65.9082 39.1003 66.6781 38.712 67.0731 38.8957C67.5105 39.0991 67.8249 39.6231 68.1448 39.9668C68.8832 40.7603 69.6352 41.5393 70.362 42.3433C71.2371 43.3114 72.1323 44.284 73.05 45.2115C73.5343 45.701 74.2961 46.3173 74.6032 46.9324C74.9896 47.7048 74.6875 49.2688 74.6875 50.1284V57.8314C76.1367 56.8098 77.364 55.2349 78.6175 53.9799C79.0744 53.5225 79.8964 52.9585 80.124 52.3409C80.5432 51.2026 80.106 49.436 80.0912 48.2436C80.0307 43.1108 78.7387 37.3887 75.0936 33.5749C73.7197 32.1373 71.955 30.9999 70.1025 30.2815C69.2747 29.9605 67.777 29.8756 67.1051 29.3351C66.3516 28.729 65.8872 27.063 65.4558 26.1996C65.2938 25.8754 65.1195 25.257 64.7632 25.1018C64.3144 24.9064 63.5458 25.0524 63.0612 25.0524H59.1312C56.28 25.0524 53.5562 25.3789 50.8619 26.3679C44.752 28.6105 40.0826 33.8633 37.8397 39.8849C36.7209 42.8884 36.4519 45.9689 36.4519 49.145C36.4519 50.0639 36.1835 51.4783 36.5012 52.3409C36.7288 52.9585 37.5505 53.5225 38.0075 53.9799C39.2614 55.2349 40.4885 56.8098 41.9375 57.8314ZM11.0294 68.5666C10.3334 66.0877 10.7837 63.1023 10.7837 60.5357C10.7837 59.938 10.5032 58.3408 10.915 57.8846C11.2172 57.5499 11.9253 57.451 12.3394 57.3125C13.4905 56.927 14.6266 56.4951 15.7781 56.1105C19.8627 54.7465 23.8837 53.1848 27.9775 51.8493L31.3058 56.2744L32.5021 57.9134L32.5625 61.0274L32.3169 68.5666C33.9247 68.1844 35.0332 66.7223 35.2407 65.1248C35.306 64.6222 35.1579 64.144 35.1863 63.6497C35.2815 61.9877 35.2644 60.3201 35.2644 58.6509C35.2644 54.9806 34.9221 50.8448 31.58 48.6008C30.7651 48.0536 29.8134 47.6354 28.8781 47.3443C28.3774 47.1883 27.6921 47.1378 27.2492 46.8555C26.4444 46.3428 26.5042 44.9019 25.7966 44.2775C25.5126 44.027 24.8906 44.1462 24.5387 44.1462C23.4001 44.1462 22.2359 44.0756 21.1 44.1535C16.6578 44.4581 12.3172 46.8749 10.0818 50.7839C8.59761 53.3795 8 56.3405 8 59.3065C8 60.7628 8.05576 62.2084 8.11913 63.6497C8.13771 64.0714 7.98706 64.4763 8.033 64.9024C8.2114 66.5575 9.27504 68.2643 11.0294 68.5666ZM85.3081 68.5666C85.101 65.9666 85.0625 63.4017 85.0625 60.7815C85.0625 60.1011 84.7677 58.5186 85.1468 57.9477C85.3622 57.6233 86.0278 57.5435 86.3725 57.4173C87.4852 57.0105 88.606 56.6232 89.7294 56.2471C93.9492 54.834 98.106 53.2274 102.338 51.8493C103.276 54.0688 105.678 55.5847 106.735 57.7495C107.111 58.5195 106.841 59.9328 106.841 60.7815C106.841 63.3035 107.229 66.1184 106.596 68.5666C110.209 67.9438 109.625 63.3485 109.625 60.6996C109.625 56.6508 109.906 51.5656 106.268 48.8564C105.415 48.2209 104.414 47.7313 103.402 47.4032C102.85 47.224 102.123 47.1762 101.618 46.8969C100.799 46.4431 100.826 44.3154 99.8786 44.1583C99.0246 44.0169 98.0454 44.1462 97.18 44.1462C95.5875 44.1462 94.0556 44.2322 92.5131 44.6728C87.1102 46.216 83.4561 50.6077 82.5727 56.1105C82.1895 58.4975 82.2059 61.1641 82.4302 63.5678C82.5113 64.4305 82.3238 65.156 82.5972 66.0262C82.9804 67.2452 84.0644 68.2709 85.3081 68.5666ZM49.7156 52.377C46.1369 52.9523 47.062 58.3322 50.6162 57.8068C54.0915 57.293 53.1684 51.8219 49.7156 52.377ZM66.0906 52.377C62.5119 52.9523 63.437 58.3322 66.9912 57.8068C70.4665 57.293 69.5433 51.8219 66.0906 52.377Z" fill="#0A2F3D"/>
<path d="M47.6106 77.9905V73.5654C52.5382 76.7783 58.2059 77.7428 63.8898 76.1829C65.6745 75.6931 67.9535 74.8728 69.3075 73.5654H69.3894V77.9905C69.3894 78.4422 69.2265 79.2957 69.4735 79.6886C69.6835 80.0228 70.3499 80.0748 70.6994 80.1802C71.7808 80.5062 72.8536 80.8952 73.8925 81.3381C76.0826 82.2715 78.1623 83.4032 80.115 84.7692C81.109 85.4642 81.985 86.323 82.9806 87.0048C83.6995 85.4847 80.7661 82.4964 82 81.3851C84.8231 78.8425 86.8908 78.099 90.7356 77.5808V75.5321C91.6452 75.9113 92.4755 76.3656 93.4375 76.6192C96.403 77.4008 98.892 76.6709 101.625 75.5321V77.5808C103.433 77.8245 105.327 78.6347 106.947 79.4454C113.235 82.5919 118 88.7962 118 96.019V114V126.5H60.5H27.2644H0V96.019C0 88.7912 4.76057 82.5944 11.0531 79.4454C12.676 78.6333 14.5638 77.8249 16.375 77.5808V75.5321C19.1078 76.6709 21.5966 77.4008 24.5625 76.6192C25.5247 76.3656 26.3543 75.9113 27.2644 75.5321V77.5808C31.1054 78.0985 33.6802 78.8451 36.5 81.3851C37.7339 82.4964 33.3008 85.4847 34.0194 87.0048C36.8784 84.8266 39.5962 82.791 42.9437 81.3851C44.0451 80.9226 45.1616 80.5309 46.3006 80.1752C46.6486 80.0665 47.3171 80.0216 47.5265 79.6886C47.7735 79.2957 47.6106 78.4422 47.6106 77.9905Z" fill="#60133D"/>
</g>
<defs>
<clipPath id="clip0">
<rect width="118" height="118" fill="white"/>
</clipPath>
</defs>
</svg>
