<svg width="1440" height="1024" viewBox="0 0 1440 1024" fill="none" xmlns="http://www.w3.org/2000/svg">
<g clip-path="url(#clip0)">
<path d="M507.884 942.501C497.875 948.086 463.769 998.164 447.324 1023.5M370.069 590.5L0.5 674.986V590.5H370.069ZM0.5 859.753V676.263L345.652 767.508H11L10.8642 768.489L172.853 814.189L0.5 859.753ZM1439.5 797.848L1169.19 715.327L1439.5 694.801V797.848ZM1094.71 590.5H1434.63L1018.46 668.606L1094.71 590.5ZM1093 590.819L1016.85 668.823L895.021 631.629L1093 590.819ZM749.235 590.588L890.996 631.478L700.013 674.87L749.235 590.588ZM748.018 590.691L698.777 675.004L558.932 625.752L748.018 590.691ZM743.561 590.5L557.002 625.093L379.674 590.5H743.561ZM374.362 590.544L522.775 721.179L3.20413 675.394L374.362 590.544ZM2.40722 860.283L174.722 814.73L503.82 940.942L254.329 900.808L2.40722 860.283ZM508.318 941.596L179.43 815.464L555.249 875.92L508.318 941.596ZM556.532 875.845L557.001 875.189L603.904 809.551L735.533 878.063L509.732 941.337L556.279 876.198L556.532 875.845ZM736.838 877.615L605.395 809.2L875.115 774.536L736.838 877.615ZM480.145 974.564C468.068 991.244 455.071 1010.64 446.728 1023.5H227.054L505.526 943.575C504.907 944.092 504.247 944.696 503.551 945.374C501.646 947.229 499.423 949.695 496.97 952.619C492.064 958.467 486.219 966.175 480.145 974.564ZM447.92 1023.5C456.268 1010.65 469.06 991.578 480.955 975.15C487.023 966.769 492.853 959.083 497.736 953.261C500.178 950.35 502.378 947.913 504.249 946.09C506.062 944.324 507.52 943.182 508.563 942.718L1010.74 1023.5H447.92ZM1067.1 919.302L1016.77 1023.32L739.571 879.037L1067.1 919.302ZM1067.56 918.351L740.352 878.125L1117.85 814.435L1067.56 918.351ZM1119.04 814.267L1436.28 799.201L1068.82 918.055L1119.04 814.267ZM1017.8 1023.5L1068.13 919.486L1436.39 1023.5H1017.8ZM1436.07 591.246L1166.46 714.496L1019.09 669.506L1436.07 591.246ZM892.981 632.052L1013.85 668.951L703.878 675.018L892.981 632.052ZM557.31 626.241L697.301 675.545L525.024 721.089L557.31 626.241ZM349.441 768.541L553.149 874.569L177.157 814.086L349.441 768.541ZM604.823 808.265L699.148 676.266L875.362 773.496L604.823 808.265ZM1165.8 715.337L1118.64 812.799L1115.69 808.619L1115.57 808.444L1018.25 670.294L1165.8 715.337ZM1016.89 670.098L1114.2 808.243L878.208 773.477L1016.89 670.098ZM602.415 808.186L351.907 767.889L524.085 722.371L602.415 808.186ZM223.11 1023.5H2.18652L253.505 902.216L223.11 1023.5ZM893.02 631.021L752.538 590.5H1089.6L893.02 631.021Z" fill="white" fill-opacity="0.2" stroke="white"/>
</g>
<defs>
<clipPath id="clip0">
<rect width="1440" height="1024" fill="white"/>
</clipPath>
</defs>
</svg>
