<svg width="1440" height="1024" viewBox="0 0 1440 1024" fill="none" xmlns="http://www.w3.org/2000/svg">
<g clip-path="url(#clip0)">
<path d="M82.9943 417.306L116.058 436.395V474.573L82.9943 493.662L49.931 474.573V436.395L82.9943 417.306Z" fill="#B0A5A6"/>
<path d="M166.168 417.306L199.232 436.395V474.573L166.168 493.662L133.105 474.573V436.395L166.168 417.306Z" fill="#B0A5A6"/>
<g opacity="0.3">
<path d="M223.436 350.494L256.499 369.583V407.761L223.436 426.85L190.372 407.761V369.583L223.436 350.494Z" fill="#B0A5A6"/>
</g>
<path d="M372.219 228.067L404.782 209.266L437.346 228.067V265.667L404.782 284.468L372.219 265.667V228.067Z" stroke="#A89E9F"/>
<path d="M95.4268 369.871L127.99 351.071L160.553 369.871V407.472L127.99 426.273L95.4268 407.472V369.871Z" stroke="#A89E9F"/>
<path d="M133.605 581.215L166.168 562.415L198.732 581.215V618.816L166.168 637.616L133.605 618.816V581.215Z" stroke="#A89E9F"/>
<path d="M294.499 369.871L327.062 351.071L359.626 369.871V407.472L327.062 426.273L294.499 407.472V369.871Z" stroke="#A89E9F"/>
<path d="M449.939 447.591L482.502 428.791L515.065 447.591V485.192L482.502 503.993L449.939 485.192V447.591Z" stroke="#A89E9F"/>
<path d="M587.653 708.021L620.216 689.221L652.78 708.021V745.622L620.216 764.423L587.653 745.622V708.021Z" stroke="#A89E9F"/>
<path d="M860.355 571.671L892.918 552.87L925.481 571.671V609.271L892.918 628.072L860.355 609.271V571.671Z" stroke="#A89E9F"/>
<path d="M916.258 631.665L948.822 612.865L981.385 631.665V669.266L948.822 688.066L916.258 669.266V631.665Z" stroke="#A89E9F"/>
<path d="M275.249 286.409L308.312 305.498V343.676L275.249 362.765L242.186 343.676V305.498L275.249 286.409Z" fill="#B0A5A6"/>
<g opacity="0.3">
<path d="M320.245 210.052L353.308 229.141V267.32L320.245 286.409L287.181 267.32V229.141L320.245 210.052Z" fill="#B0A5A6"/>
</g>
<path d="M365.24 286.409L398.304 305.498V343.676L365.24 362.765L332.177 343.676V305.498L365.24 286.409Z" fill="#B0A5A6"/>
<path d="M275.249 417.306L308.312 436.395V474.573L275.249 493.662L242.186 474.573V436.395L275.249 417.306Z" fill="#B0A5A6"/>
<path d="M237.071 485.481L270.134 504.57V542.748L237.071 561.837L204.007 542.748V504.57L237.071 485.481Z" fill="#B0A5A6"/>
<g opacity="0.3">
<path d="M121.173 495.025L154.236 514.115V552.293L121.173 571.382L88.1093 552.293V514.115L121.173 495.025Z" fill="#B0A5A6"/>
</g>
<path d="M61.1782 561.837L94.2415 580.926V619.105L61.1782 638.194L28.1149 619.105V580.926L61.1782 561.837Z" fill="#B0A5A6"/>
<g opacity="0.5">
<path d="M377.512 417.306L410.575 436.395V474.573L377.512 493.662L344.449 474.573V436.395L377.512 417.306Z" fill="#B0A5A6"/>
</g>
<g opacity="0.4">
<path d="M423.871 350.494L456.935 369.583V407.761L423.871 426.85L390.808 407.761V369.583L423.871 350.494Z" fill="#B0A5A6"/>
</g>
<path d="M462.049 267.32L495.113 286.409V324.587L462.049 343.676L428.986 324.587V286.409L462.049 267.32Z" fill="#B0A5A6"/>
<path d="M517.953 343.676L551.017 362.765V400.943L517.953 420.033L484.89 400.943V362.765L517.953 343.676Z" fill="#B0A5A6"/>
<path d="M588.856 409.124L621.919 428.214V466.392L588.856 485.481L555.792 466.392V428.214L588.856 409.124Z" fill="#B0A5A6"/>
<g opacity="0.5">
<path d="M564.313 495.025L597.376 514.115V552.293L564.313 571.382L531.249 552.293V514.115L564.313 495.025Z" fill="#B0A5A6"/>
</g>
<path d="M471.594 514.115L504.657 533.204V571.382L471.594 590.471L438.531 571.382V533.204L471.594 514.115Z" fill="#B0A5A6"/>
<path d="M672.03 485.481L705.093 504.57V542.748L672.03 561.837L638.966 542.748V504.57L672.03 485.481Z" fill="#B0A5A6"/>
<path d="M757.931 493.662L790.994 512.751V550.929L757.931 570.018L724.867 550.929V512.751L757.931 493.662Z" fill="#B0A5A6"/>
<path d="M807.017 561.837L840.08 580.926V619.105L807.017 638.194L773.954 619.105V580.926L807.017 561.837Z" fill="#B0A5A6"/>
<g opacity="0.3">
<path d="M719.752 561.837L752.816 580.926V619.105L719.752 638.194L686.689 619.105V580.926L719.752 561.837Z" fill="#B0A5A6"/>
</g>
<g opacity="0.4">
<path d="M845.195 485.481L878.258 504.57V542.748L845.195 561.837L812.132 542.748V504.57L845.195 485.481Z" fill="#B0A5A6"/>
</g>
<g opacity="0.4">
<path d="M891.554 418.669L924.618 437.758V475.936L891.554 495.025L858.491 475.936V437.758L891.554 418.669Z" fill="#B0A5A6"/>
</g>
<path d="M620.216 561.837L653.28 580.926V619.105L620.216 638.194L587.153 619.105V580.926L620.216 561.837Z" fill="#B0A5A6"/>
<g opacity="0.3">
<path d="M665.212 630.013L698.275 649.102V687.28L665.212 706.369L632.149 687.28V649.102L665.212 630.013Z" fill="#B0A5A6"/>
</g>
</g>
<defs>
<clipPath id="clip0">
<rect width="1440" height="1024" fill="white"/>
</clipPath>
</defs>
</svg>
