<svg viewBox="0 0 773 872" fill="none" xmlns="http://www.w3.org/2000/svg">
<path d="M125.741 773.178C133.876 773.178 140.572 771.02 145.829 766.703C151.142 762.387 154.047 756.41 154.545 748.773H159.027C158.585 757.462 155.237 764.462 148.983 769.774C142.73 775.032 134.983 777.66 125.741 777.66C114.507 777.66 105.57 773.593 98.9297 765.458C92.3444 757.323 89.0518 746.283 89.0518 732.338V729.35C89.0518 715.736 92.3444 704.862 98.9297 696.728C105.57 688.593 114.452 684.525 125.575 684.525C135.093 684.525 142.951 687.375 149.149 693.075C155.347 698.775 158.64 706.356 159.027 715.819H154.545C154.158 707.74 151.308 701.265 145.995 696.396C140.738 691.47 133.931 689.008 125.575 689.008C115.559 689.008 107.701 692.632 102.001 699.882C96.3564 707.076 93.5342 717.092 93.5342 729.931V732.836C93.5342 745.398 96.3841 755.276 102.084 762.47C107.839 769.608 115.725 773.178 125.741 773.178ZM213.896 777.66C206.646 777.66 199.978 775.723 193.891 771.85C187.859 767.921 183.127 762.553 179.696 755.746C176.265 748.939 174.55 741.386 174.55 733.085V729.35C174.55 721.049 176.21 713.44 179.53 706.522C182.851 699.605 187.416 694.21 193.227 690.336C199.037 686.462 205.373 684.525 212.235 684.525C222.252 684.525 230.442 688.095 236.806 695.233C243.17 702.372 246.352 711.752 246.352 723.373V728.104H179.032V733.002C179.032 740.307 180.554 747.086 183.598 753.339C186.697 759.537 190.93 764.407 196.298 767.948C201.721 771.49 207.587 773.261 213.896 773.261C219.927 773.261 225.046 772.265 229.252 770.272C233.513 768.225 237.276 765.098 240.541 760.893L243.695 763.134C236.999 772.818 227.066 777.66 213.896 777.66ZM212.235 689.008C203.492 689.008 196.076 692.273 189.989 698.803C183.902 705.277 180.333 713.55 179.281 723.622H241.869V722.543C241.869 716.456 240.569 710.811 237.968 705.609C235.422 700.352 231.881 696.285 227.343 693.407C222.86 690.474 217.825 689.008 212.235 689.008ZM321.225 690.751H271.752V776H267.27V686.186H321.225V690.751ZM330.854 729.35C330.854 720.772 332.486 713.08 335.751 706.273C339.071 699.411 343.72 694.071 349.696 690.253C355.728 686.435 362.535 684.525 370.116 684.525C377.642 684.525 384.394 686.379 390.37 690.087C396.347 693.795 400.995 699.052 404.315 705.858C407.691 712.665 409.407 720.329 409.462 728.852V732.836C409.462 741.469 407.829 749.188 404.564 755.995C401.299 762.802 396.651 768.114 390.619 771.933C384.643 775.751 377.864 777.66 370.282 777.66C362.701 777.66 355.894 775.779 349.862 772.016C343.886 768.253 339.237 762.995 335.917 756.244C332.597 749.438 330.909 741.801 330.854 733.334V729.35ZM335.336 732.836C335.336 740.307 336.802 747.169 339.735 753.422C342.724 759.62 346.846 764.462 352.104 767.948C357.416 771.435 363.476 773.178 370.282 773.178C380.52 773.178 388.848 769.332 395.268 761.64C401.742 753.948 404.979 744.042 404.979 731.923V729.35C404.979 721.99 403.485 715.183 400.497 708.93C397.509 702.676 393.358 697.807 388.046 694.32C382.789 690.779 376.812 689.008 370.116 689.008C359.879 689.008 351.522 692.909 345.048 700.712C338.573 708.515 335.336 718.337 335.336 730.18V732.836ZM421.913 771.518L425.067 767.284C433.202 756.161 437.934 740.03 439.262 718.891L441.005 686.186H489.232V771.518H496.371V802.396H491.889V776H419.589V802.396H415.937V771.518H421.913ZM427.392 771.518H484.75V690.668H445.238L443.661 720.385C442.112 742.908 436.688 759.952 427.392 771.518ZM582.201 776H577.636V732.089H522.104V776H517.621V686.186H522.104V727.606H577.636V686.186H582.201V776ZM673.178 686.186V776H668.695V738.646H635.824L613.329 776H608.017L630.678 738.231C624.203 737.18 619.084 734.358 615.321 729.765C611.558 725.172 609.677 719.389 609.677 712.416C609.677 704.613 612.305 698.332 617.562 693.573C622.875 688.814 630.069 686.352 639.145 686.186H673.178ZM614.159 712.582C614.159 719.057 616.096 724.231 619.97 728.104C623.899 731.978 629.184 733.97 635.824 734.081H668.695V690.751H639.975C631.895 690.751 625.559 692.688 620.966 696.562C616.428 700.435 614.159 705.775 614.159 712.582Z" fill="white" fill-opacity="0.5"/>
</svg>
